<svg id="Grupo_1360" data-name="Grupo 1360" xmlns="http://www.w3.org/2000/svg" xmlns:xlink="http://www.w3.org/1999/xlink" width="45" height="45" viewBox="0 0 45 45">
  <defs>
    <clipPath id="clip-path">
      <path id="Trazado_403" data-name="Trazado 403" d="M22.5,0A22.5,22.5,0,1,1,0,22.5,22.5,22.5,0,0,1,22.5,0Z" fill="#747474"/>
    </clipPath>
  </defs>
  <g id="Enmascarar_grupo_1" data-name="Enmascarar grupo 1" clip-path="url(#clip-path)">
    <g id="Grupo_1366" transform="translate(-128.7 -905.85)">
      <g id="Trazado_403-2" data-name="Trazado_403" transform="translate(128.7 905.849)">
        <path id="Trazado_2469" data-name="Trazado 2469" d="M22.5,44.5a22.137,22.137,0,0,1-8.55-1.71A21.744,21.744,0,0,1,6.975,38.07,21.889,21.889,0,0,1,.54,22.5a21.339,21.339,0,0,1,1.71-8.55,22.306,22.306,0,0,1,11.7-11.7A22.137,22.137,0,0,1,22.5.54a21.339,21.339,0,0,1,8.55,1.71,21.744,21.744,0,0,1,6.975,4.725A23.032,23.032,0,0,1,42.75,13.95a22.137,22.137,0,0,1,1.71,8.55,21.339,21.339,0,0,1-1.71,8.55,22.306,22.306,0,0,1-11.7,11.7A21.38,21.38,0,0,1,22.5,44.5Z" fill="#fff"/>
        <path id="Trazado_2470" data-name="Trazado 2470" d="M22.5.99A21.256,21.256,0,0,0,14.13,2.7,22.027,22.027,0,0,0,7.29,7.29,21.454,21.454,0,0,0,2.7,30.87a22.027,22.027,0,0,0,4.59,6.84A21.454,21.454,0,0,0,30.87,42.3a22.028,22.028,0,0,0,6.84-4.59A21.454,21.454,0,0,0,42.3,14.13a22.027,22.027,0,0,0-4.59-6.84A21.677,21.677,0,0,0,22.5.99m0-.99A22.5,22.5,0,1,1,0,22.5,22.508,22.508,0,0,1,22.5,0Z" fill="#ededed"/>
      </g>
      <g id="Grupo_1734" transform="translate(-452.822 -174.175)">
        <path id="Trazado_1554" d="M607.365,1113.524h-6.75l.675-4.05h5.76Z" fill="#fff"/>
        <circle id="Elipse_25" cx="4.995" cy="4.995" r="4.995" transform="translate(598.995 1095.974)" fill="#fff"/>
        <g id="Grupo_1734-2" transform="translate(586.717 1085.465)">
          <path id="Trazado_1555" d="M8.01,24.345A1.661,1.661,0,0,1,6.345,22.68V8.325A1.661,1.661,0,0,1,8.01,6.66H26.55a1.661,1.661,0,0,1,1.665,1.665V22.68a1.661,1.661,0,0,1-1.665,1.665Zm0-16.74a.711.711,0,0,0-.72.72V22.68a.711.711,0,0,0,.72.72H26.55a.711.711,0,0,0,.72-.72V8.325a.711.711,0,0,0-.72-.72Z" fill="#111457"/>
          <path id="Trazado_1556" d="M23.58,27.63H21.6c-.225-.135-1.035-.855-1.035-3.015v-.45H19.62v.45a5.448,5.448,0,0,0,.72,3.015H14.265a5.447,5.447,0,0,0,.72-3.015V23.85H14.04v.765c0,2.16-.81,2.88-1.035,3.015h-1.98a.463.463,0,0,0-.45.495.451.451,0,0,0,.45.45h12.6a.473.473,0,0,0-.045-.945Z" fill="#111457"/>
          <path id="Trazado_1557" d="M16.6,17.37a.463.463,0,0,1-.45-.495.409.409,0,0,1,.135-.315l2.79-2.79a.453.453,0,0,1,.675.045.435.435,0,0,1,0,.63l-2.79,2.79A.6.6,0,0,1,16.6,17.37Z" fill="#111457"/>
          <path id="Trazado_1558" d="M16.6,17.37a.409.409,0,0,1-.315-.135L14.895,15.84a.478.478,0,0,1,.63-.72l.045.045,1.395,1.395a.489.489,0,0,1,0,.675.6.6,0,0,1-.36.135Z" fill="#111457"/>
          <path id="Trazado_1559" d="M17.325,20.88a5.355,5.355,0,1,1,5.355-5.355h0A5.4,5.4,0,0,1,17.325,20.88Zm0-9.81a4.41,4.41,0,1,0,4.41,4.41,4.417,4.417,0,0,0-4.41-4.41Z" fill="#111457"/>
        </g>
      </g>
    </g>
  </g>
</svg>
